# xmcd CD database file
# Copyright (C) 1996 Ti Kan
#
# Track frame offsets:
#  150
#  15857
#  27602
#  41145
#  57772
#  72567
#  82355
#  97190
#  113067
#  129067
#  140427
#  153697
#
# Disc length: 2249 seconds
#
# Revision: 2
# Processed by: cddbd v1.4b41PL1 Copyright (c) Steve Scherf et al.
# Submitted via: CDWizzard Release:4.12
#
DISCID=a708c70c
DTITLE=James Booker - Classified
DYEAR=1900
DGENRE=
TTITLE0=All Around The World
TTITLE1=One For The Highway
TTITLE2=King Of The Road
TTITLE3=Professor Longhair Medley
TTITLE4=Baby Face
TTITLE5=Swedish Rhapsody
TTITLE6=Classified
TTITLE7=Lawdy Miss Clawdy
TTITLE8=Angel Eyes
TTITLE9=Hound Dog
TTITLE10=If You're Lonely
TTITLE11=Three Keys
EXTD=Rounder CD 2036\n\nRecorded in New Orleans, Louisiana, October 18 -2
EXTD=0, 1982\n\nJames Booker:  piano and vocals\nAlvin "Red" Tyler:  teno
EXTD=r sax\nJames Singleton:  bass\nJohn Vidacovich:  drums\n\nProduced b
EXTD=y Scott Billington and John Parsons
EXTT0=
EXTT1=
EXTT2=
EXTT3=
EXTT4=
EXTT5=
EXTT6=
EXTT7=
EXTT8=
EXTT9=
EXTT10=
EXTT11=
PLAYORDER=
